<?xml version="1.0" standalone="no"?>
<!DOCTYPE svg PUBLIC "-//W3C//DTD SVG 20010904//EN"
 "http://www.w3.org/TR/2001/REC-SVG-20010904/DTD/svg10.dtd">
<svg version="1.0" xmlns="http://www.w3.org/2000/svg"
 width="400.000000pt" height="400.000000pt" viewBox="0 0 400.000000 400.000000"
 preserveAspectRatio="xMidYMid meet">

<g transform="translate(0.000000,400.000000) scale(0.100000,-0.100000)"
fill="#000000" stroke="none">
<path d="M1869 3209 c-208 -29 -367 -188 -400 -401 -21 -134 18 -272 106 -376
36 -42 37 -43 30 -108 -7 -60 -11 -70 -54 -115 -35 -38 -62 -56 -111 -74 l-65
-24 47 0 47 -1 -13 -37 -13 -38 -76 -7 c-78 -7 -150 -35 -160 -63 -10 -24 12
-18 36 11 18 21 37 28 99 37 43 6 80 9 82 6 6 -6 -36 -191 -66 -294 -30 -102
-75 -185 -100 -185 -15 0 -8 49 23 170 35 137 35 165 -1 165 -29 0 -70 -55
-97 -129 l-18 -50 -5 45 c-4 35 -9 45 -26 47 -16 2 -24 -6 -37 -39 -15 -38
-15 -45 1 -93 13 -38 22 -51 37 -51 16 0 23 13 37 68 21 80 57 154 88 182 l23
20 -8 -25 c-4 -14 -15 -41 -25 -60 -54 -110 -63 -211 -22 -253 36 -35 64 -12
103 84 l34 82 6 -82 c5 -60 12 -90 26 -109 23 -31 57 -40 79 -21 19 16 107
189 100 196 -2 3 -20 -26 -40 -64 -35 -70 -81 -133 -96 -133 -14 0 -30 61 -30
112 0 86 71 380 99 410 3 4 46 12 95 18 104 13 177 41 211 81 16 20 30 27 42
23 17 -5 17 -5 1 6 -31 19 -88 102 -88 127 0 13 -7 38 -16 55 -18 35 -44 131
-43 156 0 9 7 -5 14 -31 15 -55 30 -78 20 -32 l-6 30 14 -25 c8 -14 20 -51 27
-82 14 -69 30 -86 23 -26 -5 53 11 32 21 -27 8 -42 30 -85 45 -85 5 0 12 12
15 28 14 57 28 82 49 82 18 0 18 2 -6 20 -14 11 -32 20 -39 20 -22 0 -52 38
-97 120 -51 94 -53 113 -10 98 26 -9 33 -7 53 11 14 13 29 19 39 15 27 -10 20
21 -8 40 -13 9 -42 16 -65 16 -45 0 -49 11 -29 84 11 40 82 126 105 126 26 0
146 -64 176 -93 21 -21 28 -37 25 -54 -2 -14 1 -23 8 -23 16 0 37 -76 38 -137
1 -96 -57 -208 -122 -236 -25 -10 -25 -11 -4 -14 12 -2 35 3 52 12 29 14 32
14 52 -6 17 -17 20 -29 15 -57 -3 -20 -12 -40 -21 -44 -8 -5 -15 -14 -15 -21
0 -6 18 7 40 28 l40 39 0 -72 c0 -70 1 -72 25 -72 28 0 32 8 11 24 -19 15 -27
146 -11 177 12 22 13 21 20 -26 4 -28 13 -58 20 -68 10 -14 11 7 7 105 -5 118
-4 122 13 108 20 -17 45 -70 45 -96 0 -13 -3 -14 -15 -4 -19 15 -19 11 -1 -32
8 -19 18 -70 22 -112 l7 -78 24 31 c14 17 33 31 43 31 10 0 22 5 25 10 11 19
31 10 71 -30 21 -22 46 -40 54 -39 16 0 -41 54 -103 96 -45 31 -104 124 -113
179 -5 34 -1 47 24 85 99 147 109 352 25 498 -100 173 -290 267 -484 240z
m164 -64 c223 -58 357 -257 319 -474 -11 -65 -48 -161 -62 -161 -3 0 -11 33
-18 73 -32 185 -65 273 -136 358 -60 73 -123 102 -221 103 -86 1 -135 -22
-194 -91 -90 -104 -117 -224 -91 -404 7 -49 10 -93 6 -97 -11 -10 -54 45 -81
104 -75 165 -43 347 85 475 110 111 250 151 393 114z m-49 -131 c9 -3 14 -10
11 -15 -3 -4 21 -26 54 -48 90 -61 103 -85 99 -177 -2 -56 -6 -71 -13 -59 -35
60 -54 82 -84 97 -18 9 -44 27 -58 40 -22 20 -34 23 -100 21 -87 -2 -114 -16
-143 -73 -11 -22 -23 -40 -26 -40 -2 0 0 9 6 19 7 13 7 22 0 26 -23 14 -10 72
31 128 l40 57 70 0 c63 0 88 11 57 23 -7 3 -1 6 14 6 14 1 33 -2 42 -5z m-272
-276 c-7 -7 -13 -35 -14 -62 l-2 -51 -3 48 c-4 43 8 77 25 77 3 0 1 -5 -6 -12z
m468 -92 c0 -12 -5 -7 -19 24 -11 24 -11 24 3 6 9 -11 16 -24 16 -30z m-473
-133 c-3 -10 -5 -2 -5 17 0 19 2 27 5 18 2 -10 2 -26 0 -35z m482 -78 c0 -27
-6 -70 -14 -95 l-15 -45 6 40 c3 22 6 78 6 125 0 91 15 70 17 -25z m-453 -131
c24 -42 26 -52 21 -119 -5 -70 -4 -74 16 -77 19 -3 16 -7 -18 -25 -65 -33
-235 -60 -235 -35 0 4 11 25 25 47 13 22 25 49 25 60 0 27 29 67 41 59 6 -3 8
-22 4 -45 -8 -45 9 -54 27 -14 8 18 8 36 -2 71 -12 43 -12 48 5 60 25 18 55
18 55 -1 0 -8 5 -15 11 -15 11 0 8 25 -7 64 -12 32 6 15 32 -30z m605 -67 c-1
-12 -15 -9 -19 4 -3 6 1 10 8 8 6 -3 11 -8 11 -12z m-537 -66 c12 -13 15 -25
9 -34 -6 -11 -12 -7 -24 19 -18 38 -11 44 15 15z"/>
<path d="M1898 2973 c-33 -8 -18 -19 22 -15 22 2 54 -1 71 -7 45 -16 50 -4 6
14 -36 15 -65 17 -99 8z"/>
<path d="M1979 2671 c-16 -16 -29 -38 -29 -48 0 -16 3 -15 19 5 16 22 19 23
34 8 21 -21 33 -20 57 4 25 25 18 40 -18 40 -21 0 -24 2 -12 10 13 8 12 10 -3
10 -10 0 -32 -13 -48 -29z"/>
<path d="M1965 2480 c-3 -5 -1 -10 4 -10 6 0 11 5 11 10 0 6 -2 10 -4 10 -3 0
-8 -4 -11 -10z"/>
<path d="M1918 2463 c6 -2 18 -2 25 0 6 3 1 5 -13 5 -14 0 -19 -2 -12 -5z"/>
<path d="M1938 2426 c-21 -7 -40 -11 -43 -8 -3 3 -5 0 -5 -6 0 -7 7 -12 15
-12 8 0 24 -5 34 -12 16 -10 25 -7 55 20 l37 32 -28 0 c-15 -1 -45 -7 -65 -14z
m35 -23 c-7 -2 -19 -2 -25 0 -7 3 -2 5 12 5 14 0 19 -2 13 -5z"/>
<path d="M2093 2139 c-36 -23 -40 -29 -20 -29 14 0 76 49 62 49 -5 1 -25 -9
-42 -20z"/>
<path d="M580 2098 c-41 -27 -90 -116 -90 -164 0 -17 14 -84 30 -147 17 -64
30 -124 30 -134 0 -12 -18 -26 -55 -42 -103 -44 -157 -137 -103 -175 34 -24
109 -20 148 7 53 36 72 68 78 138 l5 64 74 36 73 35 0 -33 c0 -34 28 -73 54
-73 7 0 26 19 42 43 l28 42 10 -42 c13 -50 38 -83 65 -83 28 0 123 111 108
126 -2 3 -21 -18 -40 -45 -46 -63 -72 -79 -87 -52 -15 29 -12 71 10 136 22 65
15 89 -19 68 -15 -10 -22 -9 -31 2 -21 26 -66 18 -94 -16 -14 -17 -26 -34 -26
-39 0 -11 -116 -76 -151 -85 -25 -6 -26 -6 -47 107 -28 144 -28 190 2 255 39
82 96 100 122 36 26 -61 -9 -162 -73 -213 -20 -15 -22 -18 -6 -10 47 22 103
119 103 179 0 84 -88 128 -160 79z m334 -314 c8 -20 -13 -59 -59 -109 l-36
-40 7 35 c9 49 52 130 68 130 8 0 17 -7 20 -16z m-354 -197 c0 -51 -39 -118
-83 -140 -72 -37 -120 7 -81 74 18 30 123 99 152 99 7 0 12 -13 12 -33z"/>
<path d="M2294 2075 c-18 -20 -47 -63 -63 -98 -24 -50 -31 -58 -36 -42 -17 52
-26 65 -51 71 -31 8 -68 -16 -101 -66 -23 -33 -31 -94 -14 -104 5 -4 7 3 4 13
-12 45 39 126 90 144 23 8 22 -20 -2 -102 -27 -87 -36 -164 -22 -190 14 -26
37 -27 44 -3 22 74 91 251 113 293 41 75 114 128 114 83 0 -9 -20 -67 -45
-130 -45 -114 -56 -179 -33 -202 20 -20 32 -14 57 33 33 62 94 130 131 145 17
7 33 10 36 7 3 -2 -20 -54 -51 -113 -86 -167 -96 -268 -33 -339 25 -29 37 -35
69 -35 34 0 43 5 69 42 16 22 30 48 30 57 -1 9 -10 -1 -20 -21 -37 -70 -84
-85 -127 -42 -22 23 -25 31 -19 72 3 25 31 97 61 160 65 135 73 168 51 211
-26 49 -64 41 -145 -33 -27 -24 -32 -27 -27 -11 4 11 14 47 23 79 34 135 -25
204 -103 121z"/>
<path d="M3174 1916 c-9 -24 4 -48 23 -44 12 2 18 12 18 28 0 29 -32 41 -41
16z"/>
<path d="M2997 1863 c-20 -23 -76 -132 -78 -153 -1 -8 -5 5 -8 30 -8 58 -36
65 -66 18 -24 -38 -65 -64 -88 -55 -12 5 -17 18 -17 47 0 59 -14 80 -54 80
-43 0 -79 -40 -101 -112 -20 -70 -19 -110 6 -142 41 -52 93 -25 125 65 16 43
21 49 46 49 16 0 40 7 53 16 24 16 25 16 25 -10 0 -15 7 -43 15 -62 23 -56 46
-42 67 39 21 80 57 154 88 182 l23 20 -8 -25 c-4 -14 -15 -41 -25 -60 -54
-110 -63 -211 -22 -253 34 -34 64 -12 99 73 l30 72 5 -46 c14 -117 85 -128
141 -21 l16 30 1 -31 c0 -38 34 -84 61 -84 36 0 60 20 100 83 21 34 39 56 39
50 0 -17 37 -53 54 -53 7 0 26 19 42 43 l28 42 10 -42 c13 -50 38 -83 64 -83
23 0 71 50 111 116 48 78 37 76 -20 -4 -27 -39 -60 -79 -72 -87 -20 -14 -23
-14 -34 2 -19 24 -16 71 7 138 22 65 15 89 -19 68 -15 -10 -22 -9 -31 2 -18
22 -64 18 -88 -7 -11 -13 -33 -48 -48 -78 -66 -133 -125 -201 -145 -169 -22
35 5 161 41 194 19 17 20 17 29 -6 l10 -24 0 27 c1 36 -30 45 -72 21 -22 -13
-46 -45 -75 -98 -50 -95 -76 -125 -93 -108 -16 16 -13 95 8 175 13 51 15 70 6
79 -20 20 -41 2 -62 -58 -12 -32 -28 -77 -37 -100 -18 -49 -54 -105 -71 -111
-20 -6 -16 38 18 168 17 65 29 129 27 142 -4 29 -38 35 -61 11z m-270 -102 c4
-27 2 -41 -6 -41 -17 0 -33 50 -26 79 8 33 25 14 32 -38z m887 23 c8 -20 -13
-59 -59 -109 l-36 -40 7 35 c9 49 52 130 68 130 8 0 17 -7 20 -16z m-916 -74
c21 -18 23 -23 12 -54 -12 -38 -46 -86 -61 -86 -5 0 -9 13 -9 29 0 36 21 131
29 131 3 -1 17 -9 29 -20z"/>
<path d="M1643 1798 c-11 -13 -29 -39 -41 -59 -18 -30 -20 -41 -11 -72 9 -33
33 -57 57 -57 5 0 22 19 38 43 l28 42 10 -42 c13 -50 38 -83 64 -83 23 0 71
50 111 116 48 78 37 76 -20 -4 -27 -39 -60 -79 -72 -87 -20 -14 -23 -14 -34 2
-19 24 -16 71 7 138 22 65 15 89 -19 68 -15 -10 -22 -9 -31 2 -19 22 -64 18
-87 -7z m91 -14 c8 -20 -13 -59 -59 -109 l-36 -40 7 35 c9 49 52 130 68 130 8
0 17 -7 20 -16z"/>
</g>
</svg>
